<svg width="400" height="200" viewBox="0 0 400 200" xmlns="http://www.w3.org/2000/svg">
  <defs>
    <linearGradient id="movieGradient" x1="0%" y1="0%" x2="100%" y2="100%">
      <stop offset="0%" style="stop-color:#ffecd2;stop-opacity:1" />
      <stop offset="100%" style="stop-color:#fcb69f;stop-opacity:1" />
    </linearGradient>
    <radialGradient id="spotlight" cx="50%" cy="30%" r="60%">
      <stop offset="0%" style="stop-color:rgba(255,255,255,0.3);stop-opacity:1" />
      <stop offset="100%" style="stop-color:rgba(255,255,255,0);stop-opacity:0" />
    </radialGradient>
  </defs>
  
  <!-- 背景 -->
  <rect width="400" height="200" fill="url(#movieGradient)"/>
  
  <!-- 聚光灯效果 -->
  <ellipse cx="200" cy="60" rx="120" ry="80" fill="url(#spotlight)"/>
  
  <!-- 电影胶片边框 -->
  <g fill="rgba(0,0,0,0.2)">
    <rect x="0" y="20" width="400" height="8"/>
    <rect x="0" y="172" width="400" height="8"/>
    <!-- 胶片孔 -->
    <g>
      <rect x="10" y="22" width="4" height="4"/>
      <rect x="25" y="22" width="4" height="4"/>
      <rect x="40" y="22" width="4" height="4"/>
      <rect x="55" y="22" width="4" height="4"/>
      <rect x="70" y="22" width="4" height="4"/>
      <rect x="85" y="22" width="4" height="4"/>
      <rect x="100" y="22" width="4" height="4"/>
      <rect x="115" y="22" width="4" height="4"/>
      <rect x="130" y="22" width="4" height="4"/>
      <rect x="145" y="22" width="4" height="4"/>
      <rect x="160" y="22" width="4" height="4"/>
      <rect x="175" y="22" width="4" height="4"/>
      <rect x="190" y="22" width="4" height="4"/>
      <rect x="205" y="22" width="4" height="4"/>
      <rect x="220" y="22" width="4" height="4"/>
      <rect x="235" y="22" width="4" height="4"/>
      <rect x="250" y="22" width="4" height="4"/>
      <rect x="265" y="22" width="4" height="4"/>
      <rect x="280" y="22" width="4" height="4"/>
      <rect x="295" y="22" width="4" height="4"/>
      <rect x="310" y="22" width="4" height="4"/>
      <rect x="325" y="22" width="4" height="4"/>
      <rect x="340" y="22" width="4" height="4"/>
      <rect x="355" y="22" width="4" height="4"/>
      <rect x="370" y="22" width="4" height="4"/>
      <rect x="385" y="22" width="4" height="4"/>
      
      <rect x="10" y="174" width="4" height="4"/>
      <rect x="25" y="174" width="4" height="4"/>
      <rect x="40" y="174" width="4" height="4"/>
      <rect x="55" y="174" width="4" height="4"/>
      <rect x="70" y="174" width="4" height="4"/>
      <rect x="85" y="174" width="4" height="4"/>
      <rect x="100" y="174" width="4" height="4"/>
      <rect x="115" y="174" width="4" height="4"/>
      <rect x="130" y="174" width="4" height="4"/>
      <rect x="145" y="174" width="4" height="4"/>
      <rect x="160" y="174" width="4" height="4"/>
      <rect x="175" y="174" width="4" height="4"/>
      <rect x="190" y="174" width="4" height="4"/>
      <rect x="205" y="174" width="4" height="4"/>
      <rect x="220" y="174" width="4" height="4"/>
      <rect x="235" y="174" width="4" height="4"/>
      <rect x="250" y="174" width="4" height="4"/>
      <rect x="265" y="174" width="4" height="4"/>
      <rect x="280" y="174" width="4" height="4"/>
      <rect x="295" y="174" width="4" height="4"/>
      <rect x="310" y="174" width="4" height="4"/>
      <rect x="325" y="174" width="4" height="4"/>
      <rect x="340" y="174" width="4" height="4"/>
      <rect x="355" y="174" width="4" height="4"/>
      <rect x="370" y="174" width="4" height="4"/>
      <rect x="385" y="174" width="4" height="4"/>
    </g>
  </g>
  
  <!-- 播放按钮 -->
  <g transform="translate(180, 80)" fill="rgba(255,255,255,0.9)">
    <circle cx="20" cy="20" r="18" fill="rgba(0,0,0,0.3)"/>
    <polygon points="15,10 15,30 30,20" fill="white"/>
  </g>
  
  <!-- 星星装饰 -->
  <g fill="rgba(255,255,255,0.6)">
    <polygon points="80,50 82,56 88,56 83,60 85,66 80,62 75,66 77,60 72,56 78,56" transform="scale(0.8)"/>
    <polygon points="320,70 322,76 328,76 323,80 325,86 320,82 315,86 317,80 312,76 318,76" transform="scale(0.6)"/>
  </g>
  
  <!-- 标题 -->
  <text x="200" y="140" text-anchor="middle" font-family="Arial, sans-serif" font-size="18" font-weight="bold" fill="rgba(0,0,0,0.8)">最新电影</text>
  <text x="200" y="160" text-anchor="middle" font-family="Arial, sans-serif" font-size="12" fill="rgba(0,0,0,0.6)">Latest Movies</text>
</svg>
